<?xml version="1.0" encoding="UTF-8" standalone="no"?>
<svg
   xmlns:dc="http://purl.org/dc/elements/1.1/"
   xmlns:cc="http://creativecommons.org/ns#"
   xmlns:rdf="http://www.w3.org/1999/02/22-rdf-syntax-ns#"
   xmlns:svg="http://www.w3.org/2000/svg"
   xmlns="http://www.w3.org/2000/svg"
   version="1.0"
   id="Capa_1"
   x="0px"
   y="0px"
   viewBox="0 0 4661.0894 2742.0874"
   enable-background="new 0 0 4724 2789"
   xml:space="preserve"
   width="4661.0894"
   height="2742.0874"><metadata
     id="metadata102"><rdf:RDF><cc:Work
         rdf:about=""><dc:format>image/svg+xml</dc:format><dc:type
           rdf:resource="http://purl.org/dc/dcmitype/StillImage" /><dc:title></dc:title></cc:Work></rdf:RDF></metadata><defs
     id="defs100" /><path
     id="path59"
     style="fill:#cb2a2f;stroke-width:1.24674"
     d="m 2356.0213,0 c -144.5504,202.03033 -324.9702,455.06642 -485.6054,679.72461 -7.7298,10.84667 -17.5781,15.33528 -31.043,12.09375 -15.5842,-3.74023 -30.5459,-8.85091 -45.1328,-15.33398 -43.2619,-19.07517 -81.7856,-45.38155 -115.5723,-78.54492 -3.1169,-3.11685 -5.7357,-7.48178 -11.4707,-7.98047 -4.3636,24.56083 -6.3587,48.87308 -5.3613,73.55859 0.9974,27.05433 6.8567,53.23636 13.3398,79.41796 2.7428,11.096 4.1143,11.9681 15.709,11.7188 1.9948,-0.1247 3.9896,-0.3735 5.9844,-0.4981 10.9714,-0.8728 21.8176,-1.9957 32.789,-2.6191 197.4846,-11.56 398.2639,-23.3404 602.0528,-36.4043 17.9531,-1.3714 35.9059,-1.1219 53.7344,-3.6153 23.8128,-3.2416 46.3796,1.1224 67.5742,12.0938 29.2985,15.0856 52.736,36.7774 70.5644,64.4551 2.3688,3.6155 4.3647,7.4814 5.6114,11.5957 2.2442,7.2311 1.2473,8.9765 -6.4825,8.9765 -9.974,0 -19.9478,-0.7477 -29.9218,-0.623 -13.3401,0.2493 -26.1834,-3.1175 -39.5235,-3.2422 0,0 -470.1402,-17.483 -725.8535,-19.1992 -11.3453,-0.374 -22.5648,-0.7478 -33.9102,-0.6231 -7.2311,0.1247 -8.1034,1.6199 -5.8593,8.6016 0.7481,2.4935 1.8701,4.9867 2.9922,7.3555 5.9844,12.9662 13.0895,25.4342 20.4453,37.6523 1.4961,2.4935 4.1136,4.6126 2.7422,8.1035 -3.4909,1.6208 -7.1048,0.4997 -10.5957,-0.373 -25.9323,-6.6078 -50.3685,-16.4583 -73.3086,-30.4219 -27.179,-16.5816 -51.8644,-36.0303 -73.9317,-58.8457 -1.9948,-2.1195 -3.8665,-4.9879 -7.3574,-4.1152 -3.8649,1.1221 -2.8661,4.8625 -3.2402,7.6054 -2.1194,14.7115 -3.3676,29.6738 -3.4922,44.6348 -0.1247,20.0725 1.4968,39.8952 4.7383,59.5937 1.2467,7.4805 1.8701,7.9782 9.7246,7.8536 6.3584,-0.1247 12.5927,-0.3738 18.9511,-0.6231 299.4553,-11.8936 634.6408,-24.5779 957.4981,-37.5273 36.9036,-1.4961 73.6823,-3.2413 110.5859,-5.1114 7.2311,-0.3741 13.8395,0.4997 20.4473,3.3672 13.0908,5.6103 26.1813,11.4705 38.7734,18.0782 34.7841,18.3272 63.7078,43.1364 85.6504,75.9257 1.6208,2.3688 3.8649,4.4877 3.7403,7.2305 -2.7429,2.7428 -5.4854,1.7461 -8.1036,1.7461 -97.6788,-2.0865 -195.8323,-4.3312 -301.2129,-5.3613 -15.3349,-0.2494 -19.9469,-3.6162 -24.3105,-18.2032 -1.6207,-5.361 -2.6194,-10.971 -4.2402,-16.332 -6.6077,-22.1921 -21.5677,-34.4101 -44.5078,-36.6543 -12.4674,-1.122 -25.0606,-2.3681 -37.7774,-1.9941 -64.64,2.0703 -131.8007,2.713 -201.8476,5.7344 -0.2494,0.6233 -0.3737,1.3728 -0.6231,1.996 31.2933,17.2052 62.711,34.5332 94.1289,51.7383 -0.1247,0.6233 -0.3733,1.3727 -0.498,1.9961 -9.1012,0 -18.2034,0.374 -27.3047,0 -203.125,-6.642 -403.7475,-10.6915 -631.7246,-22.6914 -14.5869,0.2494 -29.2979,-0.9967 -43.8848,-1.2461 -8.7272,-0.1247 -10.224,1.8689 -7.7305,9.9727 8.1038,25.9323 19.4509,50.1195 35.7832,71.9375 4.7376,6.2337 9.599,8.8529 17.5782,8.6035 394.7984,-9.8072 1187.8964,-20.4473 1187.8964,-20.4473 7.2311,-0.2494 11.096,2.4939 13.4649,9.1016 3.7402,10.722 7.3551,21.3197 10.2226,32.29096 2.4935,9.5999 3.866,19.4495 5.6114,29.2988 0.9974,5.2363 2.8684,10.0984 2.6191,15.584 -0.4987,8.7272 -0.4986,9.2259 -8.9765,8.9766 -349.556,-9.4003 -756.1786,-18.3376 -1170.3184,-28.6758 -15.2102,-0.2493 -29.7982,-2.9916 -43.7617,-8.7266 -20.5713,-8.4779 -40.8929,-17.5804 -60.4668,-28.17766 -34.7841,-18.9505 -68.5697,-39.5215 -96.7461,-67.9473 -1.2468,-1.2467 -2.4935,-3.3659 -5.9844,-2.1191 -1.2467,10.5973 -2.7431,21.6931 -3.8652,32.7891 -2.2441,21.5686 -10e-4,43.01266 1.8691,64.33196 2.4935,28.7998 9.8496,56.8525 19.5742,84.1562 1.7454,4.987 4.7376,6.8566 9.7246,6.4825 2.9922,-0.2493 5.9844,-4e-4 8.9766,-0.125 398.0227,-8.8236 899.5943,-17.0838 1348.1035,-26.9297 7.8545,-0.374 9.2249,0.998 9.3496,9.2265 0.6234,26.6803 -0.6218,53.2348 -4.6113,79.5411 -1.6208,10.4727 -2.2442,10.8476 -12.7168,10.8476 -14.3376,0 -28.5511,-0.4997 -42.8887,-0.375 -28.301,0.2493 -56.4782,0.625 -84.7793,1.3731 -8.7272,0.2493 -15.8326,-1.6225 -22.8144,-7.3575 -13.9635,-11.47 -29.7967,-20.57 -46.877,-25.6816 -41.8906,-12.5921 -84.6547,-16.583 -128.166,-10.2246 -28.7998,4.2389 -56.4766,12.2182 -81.1621,28.4258 -6.2337,3.9896 -12.4684,5.2366 -19.8242,4.6133 -21.07,-1.8702 -42.3894,-1.6196 -63.584,-3.2403 -280.8421,-10.0501 -568.5793,-20.8356 -841.0527,-31.668 -2.1195,-0.1247 -5.1105,-1.2471 -6.2325,1.3711 -1.2468,2.7428 0.8721,5.237 2.7422,6.9825 3.3662,3.1168 7.1067,5.8597 9.8496,9.7246 7.3558,10.2233 14.9594,20.3213 22.5645,30.4199 7.7298,10.348 7.7298,10.2244 0,20.5723 -4.4883,6.1091 -9.1009,12.2177 -13.3398,18.5761 -2.4935,3.7402 -1.3718,5.3604 2.8671,5.7344 1.3714,0 2.6188,-0.125 3.9903,-0.125 261.1856,-8.2227 541.1569,-20.6429 839.0586,-30.1699 2.1195,-0.1247 4.6135,-1.4961 6.9824,1.4961 -2.1195,2.6181 -4.2389,5.485 -6.7324,7.9785 -5.361,5.4857 -10.848,10.7213 -16.209,16.207 -18.3271,18.4518 -35.9056,37.4027 -52.1133,57.7246 -3.8649,4.8623 -8.3535,8.2279 -15.0859,7.9785 -231.1659,-9.3252 -515.132,-20.7433 -775.0996,-32.664 -8.9765,-0.4987 -15.2107,2.4935 -20.3223,9.7246 -17.0804,24.0621 -34.5355,47.8754 -51.8652,71.9375 -1.7454,2.6182 -4.6117,4.861 -3.9883,9.9727 278.3977,-10.0986 556.6697,-20.4464 835.4414,-30.545 -0.4987,2.4935 -0.3744,3.6172 -0.8731,4.3653 -1.6208,2.8675 -3.3662,5.7337 -5.2363,8.4765 -15.0856,22.6908 -30.5452,45.1325 -41.1426,70.4414 -2.6181,6.3584 -7.2308,9.2253 -14.0879,8.7266 -238.4018,-16.4506 -514.7274,-13.2388 -788.1894,-30.4199 -6.109,-0.2494 -10.9727,1.2457 -14.7129,6.3574 -18.5765,25.4335 -37.5273,50.7441 -56.2285,76.1777 -1.496,1.9948 -3.8646,3.988 -1.3711,7.6035 284.0081,-12.9661 568.515,-23.3135 853.8945,-35.6562 -0.8727,3.1168 -1.246,5.112 -1.9941,6.8574 -11.3453,26.9297 -20.8207,54.6075 -27.6778,83.0332 -1.4961,6.2337 -3.2415,6.8567 -11.2207,6.6074 -245.1542,-9.6477 -550.771,-20.503 -826.4668,-33.039 -8.3532,-0.7481 -13.7135,2.2437 -18.4511,8.8515 -17.0804,23.6881 -34.5353,47.1282 -51.7403,70.8164 -2.1195,2.8675 -4.8628,5.4858 -4.7382,9.7247 9.1013,0 17.9547,0.3741 26.8066,0 282.3458,-10.7285 557.282,-21.971 868.8555,-33.6621 2.6182,-0.1248 5.3603,-0.8738 7.9785,1.121 -0.374,1.8701 -0.6241,3.8663 -0.9981,5.7364 -5.4857,26.0569 -10.0982,52.2376 -10.3476,78.9179 v 0.9981 c -0.748,7.2311 -1.4968,7.9789 -8.4785,8.1035 -1.6208,0.1247 -3.3656,-0.125 -4.9864,-0.125 -269.2981,-9.6578 -598.663,-19.4383 -892.0449,-30.4199 -7.9792,-0.2493 -13.2155,2.8668 -17.2051,9.4746 -5.2363,8.7272 -10.971,17.3297 -16.332,26.1816 -3.8649,6.483 -8.7265,12.4679 -11.7188,19.5742 3.3663,3.1169 7.2299,2.1195 10.7208,2.2442 309.7424,6.2255 614.8494,-9.8033 961.2402,-5.3613 7.3558,0 14.4619,1.2474 21.5683,3.2421 48.3736,13.8389 97.4946,23.562 147.7383,27.0528 61.7138,4.239 122.8044,1.497 183.2715,-12.3418 155.4688,-35.7815 278.1479,-120.4348 369.1602,-250.2207 67.6981,-96.4979 100.1136,-205.9625 106.9707,-323.1563 4.4883,-76.0513 -5.3604,-150.60676 -29.6719,-222.91786 -10.9713,-32.54 -23.5638,-64.3327 -42.7637,-93.0078 z m 462.4981,1197.9336 c 6.2863,0.061 6.5582,1.7917 4.1582,9.5371 -8.3531,27.553 -21.8165,52.488 -39.0215,75.5527 -1.9948,2.6182 -3.8656,5.4864 -6.2344,7.7305 -3.7403,3.7402 -6.4824,3.7402 -10.2226,0 -2.1195,-2.1194 -3.8653,-4.612 -5.3614,-7.1055 -16.083,-25.0596 -31.9173,-50.4935 -51.1172,-73.4336 -0.8727,-0.9974 -1.6207,-2.1201 -2.2441,-3.2422 -1.2468,-2.6182 -0.7475,-4.6137 2.4941,-4.7383 4.6129,-0.2494 9.2253,-0.2487 13.9629,-0.498 13.9635,-0.6234 27.8022,-1.2458 41.7657,-1.8692 v 0.3731 c 16.2076,-0.7481 32.4157,-1.6207 48.748,-2.2441 1.1532,-0.047 2.1742,-0.071 3.0723,-0.062 z" /><path
     d="m 968.02339,2474.7857 c -4.239,0.3741 -5.361,3.2416 -5.361,6.9818 0,26.5556 -0.3741,53.2359 0.374,79.7916 0.374,15.9583 10.5973,25.5582 26.4309,27.179 3.9896,0.374 7.9792,0.374 11.96881,0.374 h 510.6659 3.9896 c 21.3193,-0.374 32.6646,-11.4701 33.1633,-32.54 0.1247,-7.3558 0.1247,-14.5869 0.1247,-21.9427 v -466.7806 c 0,-13.9635 0,-13.8388 13.4648,-13.8388 51.4905,-0.1247 103.1057,0.1247 154.5962,-0.4987 23.4387,-0.2494 42.7633,7.8545 58.7216,24.6855 10.3479,10.8467 18.9505,23.0647 26.9296,35.7815 73.6906,119.1303 128.355,246.2615 194.9906,357.6906 7.3558,12.2181 14.9609,24.4362 22.4414,36.5296 1.2467,1.9947 2.4935,3.9895 3.9896,5.735 3.4909,3.8649 5.735,3.8649 8.8519,-0.2494 1.9947,-2.6181 3.4908,-5.6103 5.1116,-8.4778 72.9345,-129.2873 144.6222,-259.3226 216.4346,-389.3579 4.8623,-8.7272 9.9739,-17.205 15.5843,-25.5582 15.9583,-23.6881 37.5269,-36.6542 66.8254,-36.2802 31.2932,0.374 62.4618,0 93.7551,0 h 56.8514 c 10.9714,0 11.0961,0.1247 11.0961,11.2207 v 659.2777 c 0,13.4648 0,13.4648 -13.8389,13.4648 h -140.6326 -4.987 c -8.7272,-0.2494 -9.8492,-1.3714 -10.0986,-9.7246 -0.1247,-2.3688 0,-4.613 0,-6.9818 v -370.0333 c 0,-3.6155 0.8727,-7.2311 -0.9974,-11.3453 -3.8649,1.3714 -5.1116,4.9869 -6.7324,7.8544 -66.8254,120.9341 -133.5262,241.8682 -200.3516,362.8022 -2.9922,5.4857 -6.8571,10.5974 -10.2233,15.9584 -4.6129,7.4804 -11.7194,10.4726 -20.0725,11.096 -3.9896,0.2493 -7.9792,0.2493 -11.9688,0.374 -33.5374,0 -67.1994,-0.8727 -100.7368,0.374 -19.1999,0.7481 -31.4179,-6.7324 -40.0205,-23.0647 -65.6904,-119.4724 -137.2685,-249.593 -196.362,-357.0672 -2.4935,-4.613 -4.6129,-9.4753 -7.1064,-14.0882 -0.4987,-1.1221 -0.8727,-2.7429 -2.6182,-2.4935 -1.7454,0.374 -2.8675,1.7454 -2.9922,3.3662 -0.2493,1.9948 -0.1246,3.9896 -0.1246,5.9844 0,110.0874 -0.2494,220.0501 0.2493,330.1375 0.1247,22.4414 -9.8493,37.7763 -27.179,50.1191 -5.8597,4.1142 -12.2181,6.6077 -19.4492,6.9817 -8.3532,0.3741 -16.5817,0.9974 -24.9348,1.1221 -269.3388,-0.021 -539.8269,0.6096 -798.78831,1.2468 -10.3479,0 -20.5712,-0.4987 -30.2958,-4.613 -21.3193,-9.2259 -32.7894,-25.1842 -34.0361,-48.3736 -0.374,-6.6078 -0.1247,-13.3402 -0.1247,-19.9479 v -544.5774 c 0,-5.6103 0.374,-11.3453 0.2494,-16.9557 -0.7481,-25.4335 23.5634,-49.6203 49.371,-50.8671 193.84451,-1.8169 404.80071,-0.4957 575.49651,-0.2493 18.4518,0 16.5817,-1.4961 16.5817,16.5817 0.1247,41.8905 0,83.7811 0,125.6717 v 1.9947 c 0,12.7168 0,12.7168 -12.3427,12.7168 -140.8491,0.4504 -294.5491,0.5942 -420.9005,0.8727 -4.98691,0 -9.97391,-0.1246 -14.96091,0.4987 -14.2129,1.8702 -23.1894,11.8441 -23.5634,26.1816 -0.4987,23.9375 -0.9974,47.875 -1.3714,71.8124 -0.1247,4.239 -0.7481,8.8519 3.6155,11.7194 3.8649,1.7455 7.8545,0.8727 11.8441,0.8727 h 394.84351 c 11.2207,0 11.2207,0 11.2207,11.3454 v 129.6613 c 0,3.2415 0.748,6.6077 -0.7481,9.8492 v 0 c -2.8675,1.3715 -5.8597,0.7481 -8.8519,0.7481 H 976.99989 c -2.9922,0 -5.9844,0.4987 -8.9765,-0.7481 z"
     id="path61"
     style="fill:#008b52;stroke-width:1.24674" /><path
     d="m 4019.5515,2579.3875 c 7.8545,9.5999 16.5817,13.9635 29.0491,13.8388 31.5426,-0.4987 63.2099,-0.1246 94.7525,-0.2493 11.096,0 10.0986,-0.1247 10.2233,9.3506 0.2493,43.2619 0.4987,86.3992 0.748,129.6612 0,9.7246 -0.374,10.0986 -10.0986,10.0986 h -189.5049 c -6.6078,0 -13.2155,-0.8727 -19.8232,-1.3714 -13.5895,-1.122 -23.6881,-7.7298 -32.166,-17.8284 -47.067,-56.7001 -95.9888,-115.718 -139.3859,-168.061 -1.8701,-2.2441 -3.2415,-5.1116 -7.1064,-6.109 -4.6129,4.7376 -9.5999,9.5999 -14.0882,14.8362 -37.5203,44.0568 -73.2097,89.0795 -106.5965,131.2821 -6.4831,8.2285 -13.8389,15.9583 -20.1973,24.3115 -11.47,15.0856 -27.4283,20.0725 -45.3814,20.9453 -5.6103,0.2493 -11.3454,0 -16.9557,0 h -843.671 c -11.3454,0 -22.3167,-0.7481 -33.4127,-3.7403 -26.805,-7.2311 -45.1321,-28.9244 -46.6282,-56.6021 -0.1247,-2.3688 -0.1247,-4.613 -0.1247,-6.9818 0.1247,-181.7751 0.3741,-363.6749 -0.4987,-545.45 -0.1246,-13.9636 2.4935,-27.179 9.8493,-39.0231 13.7142,-21.9427 33.6621,-34.1607 59.4696,-34.1607 195.6958,0.3212 375.5557,0.6043 561.4084,0.6233 h 4.987 c 8.1038,0.2494 8.3532,0.4987 8.4778,8.4779 0.1247,5.9843 0,11.9687 0,17.9531 -0.1246,31.5426 -0.4987,63.2098 0,94.7524 0.1247,8.8519 1.4961,17.8285 1.2468,26.805 -0.1247,2.2442 0.6234,4.7376 -1.1221,6.6078 -10.348,2.2441 -20.8206,1.7454 -31.2932,1.7454 -135.147,0 -270.1692,0 -405.3162,0.1247 -4.8623,0 -10.0986,-1.6208 -14.3375,2.2441 -3.2416,1.6208 -6.3584,3.3662 -9.5999,4.987 -12.7168,6.6077 -20.4466,16.831 -21.3194,31.4179 -1.3714,22.192 -0.8727,44.5087 -0.748,66.8254 0,6.6078 1.8701,7.7298 9.8493,7.8545 135.4814,0.281 269.4316,-0.6981 394.8435,-0.748 10.722,0 10.9713,0.2493 10.9713,11.3453 v 130.6587 3.9896 c 0,4.3636 -1.6207,6.9817 -6.483,6.6077 -2.6182,-0.2493 -5.361,0 -7.9792,0 -128.2899,-0.1247 -256.5797,-0.2493 -384.8696,-0.4987 -16.7063,0 -14.9609,-0.374 -14.9609,15.335 -0.1247,20.9452 0.374,41.8905 -0.1247,62.8358 -0.4987,19.5739 12.0934,33.6621 30.9193,36.5296 6.9817,0.9974 13.8388,1.4961 20.8206,1.4961 231.2455,1.7185 639.0804,-1.6208 639.0804,-1.6208 14.4623,0.2493 25.4336,-4.987 34.6595,-15.9583 43.0239,-56.3162 90.9929,-100.8824 129.6613,-152.4767 9.7246,-13.0908 9.8492,-19.5738 -0.8728,-31.7919 -46.0048,-52.3632 -92.2589,-104.6018 -138.3884,-156.8403 -1.4961,-1.7454 -3.3662,-3.2415 -4.8623,-4.987 -10.4727,-11.47 -22.9401,-16.457 -38.8984,-15.8336 -27.179,1.1221 -54.4827,0.374 -81.7863,0.374 -2.4935,0 -5.361,0.8727 -7.3558,-1.7454 10.8466,-1.9948 21.6933,-0.7481 32.54,-0.8727 23.9374,-0.2494 47.8749,-0.1247 63.4592,-0.1247 -26.431,0.748 -61.3398,-1.3714 -96.1239,0.8727 -4.1143,-3.1169 -3.1169,-7.7298 -3.1169,-11.8441 0,-44.5087 0.1247,-89.1421 0.2494,-133.6508 0,-10.0986 0.1247,-10.2233 9.8493,-10.2233 h 159.5831 c 16.5816,0 31.2932,5.361 44.6334,14.8362 7.7298,5.361 14.3375,11.9688 20.4465,18.9505 51.5429,59.1429 98.859,118.9302 146.7417,176.0401 1.8701,2.2442 3.7402,4.613 5.8597,6.8571 6.109,6.6078 8.2285,6.7324 14.3375,-0.374 48.2664,-56.3152 96.7593,-113.7854 142.3781,-167.9363 10.3479,-12.2181 22.192,-22.94 35.1581,-32.2906 12.7168,-9.2259 26.9297,-14.2129 42.7633,-14.2129 h 150.6066 c 9.2259,0 10.0986,0.8727 10.0986,10.4727 0,46.5035 -0.1247,93.1317 -0.1247,139.6352 -2.9922,2.4935 -6.483,2.9922 -10.2233,2.9922 h -87.3967 c -0.9974,0 -2.1194,0.1246 -2.1194,0.1246 27.553,0 55.9787,0 84.4045,0.1247 3.4909,0 7.2311,-1.2467 10.5973,1.2467 0.1247,1.1221 3.3662,2.2442 0.2493,3.4909 -1.496,0.4987 -3.2415,0.1247 -4.9869,0.1247 -28.5504,0 -57.1009,0.1247 -85.7759,-0.2493 -11.9688,-0.1247 -20.8207,4.2389 -28.3011,13.4648 -48.2912,56.328 -100.136,118.2088 -142.7521,169.931 -8.4778,10.348 -8.4778,12.5922 0.2494,23.1895 48.638,56.1194 82.4829,97.9366 131.656,157.5883 z"
     id="path63"
     style="fill:#008b52;stroke-width:1.24674" /><path
     d="m 0.92479004,2396.8643 c 0.11309996,-113.4595 -0.1173,-217.9437 -0.374,-323.0311 0,-3.9896 -0.2494,-7.9792 -0.4987,-11.9687 -0.374,-4.1143 1.24669996,-6.1091 5.48569996,-6.1091 7.3557,0 14.5869,-0.374 21.9426,-0.374 211.099,-0.057 399.2769,0.1294 593.325,-0.6234 11.096,0 21.9427,0.8727 31.9167,6.1091 20.1972,10.4726 31.7919,26.6803 33.1633,49.6203 0.2494,2.9922 0.1247,5.9844 0.1247,8.9766 v 356.9425 c 0,11.3454 -0.6234,22.5661 -4.613,33.4127 -4.1142,10.9714 -11.3453,19.1999 -20.5712,26.1816 -12.5921,9.4753 -26.5556,12.3428 -42.0153,12.3428 -129.6612,-0.1247 -259.3225,-0.1247 -388.8591,-0.1247 h -2.9922 c -9.4752,-0.2493 -10.0986,-0.748 -10.0986,-10.4726 v -141.63 c 0,-11.5947 0.1247,-11.7194 11.5947,-11.7194 82.4097,0.1247 164.8194,0.2493 247.3538,0.2493 4.613,0 9.3506,0.1247 13.9635,-0.1246 14.5869,-0.8728 21.9427,-8.1039 22.0674,-22.8154 0.2493,-40.8932 0.2493,-81.7864 0,-122.6796 -0.1247,-17.205 -9.4752,-26.0569 -26.9297,-26.0569 -110.5932,0.071 -195.3994,0.1247 -303.2078,0.1247 -12.5922,0 -12.5922,0.1247 -12.5922,12.7168 0.1247,125.2976 0.3741,250.5953 0.6234,375.893 0.1247,43.262 0.2494,86.3993 0.374,129.6613 0,8.4778 0,8.6025 -8.6025,8.6025 H 9.90139 c -9.47529996,0 -9.47529996,-0.1247 -9.47529996,-10.0986 v -333.0051 z"
     id="path65"
     style="fill:#008b52;stroke-width:1.24674" /><path
     id="path67"
     style="fill:#626f77;stroke-width:1.24674"
     d="m 4493.8123,2402.8496 c -91.0123,0 -168.4352,67.697 -169.8066,169.3066 -1.3715,94.5031 74.8042,168.6836 171.8008,167.9356 95.8746,-0.7481 167.5621,-79.0419 165.1933,-167.5606 2.9922,-89.5162 -69.3182,-169.8063 -167.1875,-169.6816 z m -0.998,27.5527 c 78.0461,-0.2494 140.1351,61.4637 140.2598,139.5098 0.1246,76.6747 -55.979,140.7581 -139.8848,141.6308 -79.1682,0.8728 -141.2569,-60.4685 -141.6309,-138.8886 -0.4987,-79.0435 62.2124,-142.0027 141.2559,-142.252 z" /><path
     d="m 2822.0549,2213.5931 c 0.1246,-2.7428 1.4961,-4.2389 4.3636,-4.2389 2.9922,0 5.9843,0 8.9765,0 140.882,0 281.7639,0 422.6459,0.1246 6.3584,0 12.2181,0.1247 14.3375,-7.9791 0.2494,2.7428 0.3741,5.4856 0.6234,8.2285 -0.4987,2.3688 -2.1194,3.1168 -4.3636,3.2415 -2.6181,0.1247 -5.361,0 -7.9791,0 -132.9028,0 -265.8056,0 -398.7085,0 -13.3401,-0.1247 -26.6803,0.2494 -39.8957,0.6234 z"
     id="path69"
     style="fill:#077d4e;stroke-width:1.24674" /><path
     d="m 1383.8121,2474.7857 c 0,-45.8801 -0.1246,-91.7602 -0.1246,-137.6404 0,-13.2155 0.6233,-12.2181 -12.5921,-12.2181 -130.908,0 -261.9407,0 -392.84881,-0.1246 -3.8649,0 -7.9791,1.4961 -11.3453,-1.8702 3.6155,-0.1246 7.3558,-0.2493 10.9713,-0.2493 131.53141,0 263.18751,0 394.71891,0 14.4622,0 13.4648,-0.9974 13.4648,13.4648 0,40.8932 0.1247,81.7864 -0.1247,122.5549 -0.1247,5.361 1.6208,11.096 -2.1195,16.0829 z"
     id="path71"
     style="fill:#198d5d;stroke-width:1.24674" /><path
     d="m 968.02339,2474.7857 c 3.3662,-0.1246 6.6077,-0.374 9.9739,-0.374 132.27941,0 264.55891,0 396.83831,0 2.9922,0 5.9844,0.1247 8.9765,0.2494 -2.8675,2.4935 -6.3583,1.2467 -9.5999,1.2467 -132.5288,0.1247 -265.0575,0.1247 -397.58631,0 -2.8675,0.1247 -5.8597,0.9974 -8.6025,-1.1221 z"
     id="path73"
     style="fill:#198d5d;stroke-width:1.24674" /><path
     d="m 4149.0881,2211.4736 c -32.7893,0 -65.5787,0 -98.368,0 3.1169,-3.1168 6.4831,-2.2441 9.7246,-2.2441 22.9401,-0.1247 45.8801,0 68.6955,0 8.2285,0 16.5817,0.6234 24.6855,-1.9948 1.4961,4.7376 -2.3688,3.7402 -4.7376,4.2389 z"
     id="path75"
     style="fill:#077e4e;stroke-width:1.24674" /><path
     d="m 1874.5302,665.8864 c -0.1247,2.24413 -1.1221,3.24153 -2.8675,3.3662 -0.374,0 -0.9974,-0.74804 -0.9974,-1.24674 0,-1.74544 0.9974,-2.99218 2.6181,-3.49088 0.8728,-0.24935 1.2468,0.74804 1.2468,1.37142 z"
     id="path79"
     style="fill:#dd7679;stroke-width:1.24674" /><path
     d="m 3943.3755,2484.1363 c 0,0.1247 0,0.2494 0,0.4987 0,-0.2493 0.1247,-0.374 0.1247,-0.6234 0,-0.1246 -0.1247,0.1247 -0.1247,0.1247 z"
     id="path81"
     style="fill:#008b52;stroke-width:1.24674" /><path
     d="m 3374.4867,2211.0996 c 1.9948,-2.4935 4.8623,-1.8701 7.3558,-1.8701 31.9166,0 63.8332,0 95.7498,0 1.4961,0 3.2416,-0.4987 4.987,1.8701 -36.4049,0.1247 -72.1864,0.1247 -108.0926,0 0.1247,0.1247 0,0 0,0 z"
     id="path85"
     style="fill:#097a4d;stroke-width:1.24674" /><path
     id="path89"
     style="fill:#626f77;stroke-width:1.24674"
     d="m 4462.0994,2482.6875 c -11.7973,-0.016 -23.5796,0.016 -35.3613,0.078 -8.3532,0.1247 -8.9769,0.8714 -9.1015,9.2246 -0.8728,54.4827 1.8705,108.8416 -1.3711,163.3242 -0.374,6.4831 2.8669,9.9737 9.4746,10.3477 3.8649,0.2493 7.8541,-0.4991 11.8437,-0.8731 9.4752,-0.9974 9.7246,-0.9964 9.7246,-10.8457 0.1247,-13.9635 0,-27.927 0,-41.8906 0,-5.9843 0.1247,-11.9687 0,-17.9531 -0.1246,-4.2389 1.7455,-6.1091 5.9844,-5.9844 4.3636,0.1247 8.6032,0.1247 12.9668,0 12.4675,-0.2494 22.3174,4.6116 30.1719,14.4609 10.5973,13.2155 20.0723,27.3055 27.5527,42.5157 1.8702,3.8649 3.9882,7.7281 6.2324,11.3437 2.9921,4.7376 7.3561,8.1051 12.8418,8.7285 8.7272,1.1221 17.3295,-0.8727 27.5528,-1.4961 -5.9843,-9.8493 -10.8457,-18.0775 -16.0821,-26.0566 -12.5921,-18.9505 -22.6914,-39.8965 -43.6367,-53.3613 3.4909,-2.6182 6.11,-3.2423 8.6035,-3.9903 8.8518,-2.2441 16.4571,-6.9808 23.1895,-13.0898 13.7142,-12.5921 18.0772,-28.4254 13.9629,-46.2539 -4.1142,-18.0777 -15.4593,-29.6725 -33.5371,-34.4102 -8.3532,-2.1194 -16.9561,-3.4926 -25.5586,-3.6172 -11.8441,-0.1247 -23.6558,-0.1855 -35.4532,-0.2011 z m 0.039,24.9589 c 5.4292,-0.017 11.2266,0.053 18.707,0.053 4.239,0.2493 11.595,0.3743 18.8262,0.873 5.6103,0.374 11.2217,1.4965 16.084,4.6133 8.7272,5.4857 12.4668,13.4639 11.7187,23.5625 -0.7479,9.8492 -5.7344,16.8327 -14.7109,20.8223 -7.1065,3.1168 -14.836,3.8643 -22.3164,4.2383 -11.2207,0.6234 -22.5667,0.4977 -33.9121,0.373 -7.3557,-0.1246 -8.6035,-1.2465 -8.6035,-8.8516 -0.1247,-12.3428 -0.2493,-24.5596 0,-36.9023 0.1247,-7.4805 1.2484,-8.4792 8.8535,-8.7285 1.7766,-0.031 3.5438,-0.047 5.3535,-0.053 z" /></svg>
